<svg xmlns="http://www.w3.org/2000/svg" width="70mm" height="70mm" viewBox="0 0 248.031 248.031">
    <path style="opacity:1;fill:#030904;fill-opacity:1;fill-rule:nonzero;stroke:#000;stroke-width:.50507629;stroke-opacity:1" d="M76.423 1042.717c-2.222-.227-4.722-.682-5.555-1.012-.834-.33-9.339-2.857-18.9-5.616-9.562-2.758-17.453-5.083-17.535-5.165-.24-.24 2.279-42.512 2.864-48.082 2.267-21.584 6.048-32.16 14.865-41.586 7.59-8.115 14.922-11.772 27.544-13.74 5.511-.858 39.444-1.23 47.62-.522 13.001 1.127 21.307 3.104 29.124 6.934 3.946 1.932 5.526 3.088 9.142 6.685 9.42 9.37 13.766 22.358 15.855 47.383 1.165 13.965 2.488 42.597 1.99 43.079-.918.888-17.737 5.597-23.365 6.541-20.441 3.43-70.258 6.467-83.649 5.101z" transform="translate(0 -804.33)"/>
    <g transform="translate(7.44 -804.33)">
        <ellipse ry="38.328" rx="40.659" cy="883.104" cx="101.54" style="opacity:1;fill:#000700;fill-opacity:1;fill-rule:nonzero;stroke:#000;stroke-opacity:1"/>
        <path style="fill:#333;stroke:#333;stroke-width:1.59399235" d="M130.735 872.515c-.956-.151-2.036-.134-3.253.097-8.995 1.714-29.227 2.16-42.286.928-8.051-.76-15.27-.819-16.01-.147-1.699 1.544 1.927 13.989 5.133 17.624 5.614 6.366 21.426 1.417 23.736-7.42 1.279-4.896 5.164-5.136 6.404-.39.51 1.95 2.461 5.113 4.32 7.03 6.45 6.649 22.258 3.165 22.973-5.078.253-2.913.532-3.934 2.185-7.567 1.178-2.587-.332-4.624-3.202-5.077zm-.355 1.513c.294-.125.721-.07 1.169.195.894.531 1.626 1.281 1.626 1.66s-.732.684-1.626.684c-.895 0-1.627-.75-1.627-1.66 0-.455.163-.754.458-.879zm-2.948 7.958c.273.109.285.387 0 .83-.547.849-1.65 1.562-2.49 1.562-2.34 0-1.853-1.11.965-2.148.724-.267 1.252-.354 1.525-.244zm-16.925 5.565c.01-.12.484.221 1.372.976 1.184 1.008 3.138 1.48 4.371 1.025 1.233-.454 2.287-.478 2.287-.048 0 2.242-4.968 2.136-6.76-.147-.854-1.089-1.282-1.687-1.27-1.806zM82.862 817.984c-1.465.026-2.815.428-4.421 1.171-4.743 2.193-6.992 7.331-10.826 24.85l-2.643 11.96-8.132 1.074c-8.214 1.085-11.619 4.12-8.285 7.323.936.899 7.425 2.176 14.435 2.88 13.225 1.329 77.116.574 86.2-1.025 5.418-.954 8.526-5.009 5.286-6.932-1.04-.617-5.398-1.557-9.657-2.1-6.824-.87-7.843-1.514-8.539-5.272-2.762-14.926-6.525-27.959-8.793-30.366-2.325-2.468-4.505-2.684-18.45-1.806-10.246.645-17.712.417-21.143-.732-2.026-.679-3.566-1.051-5.032-1.025z"/>
    </g>
    <path style="color:#000;display:inline;overflow:visible;visibility:visible;fill:#e6e6e6;stroke:#e6e6e6;stroke-width:2.09475136px;stroke-linecap:butt;stroke-linejoin:miter;stroke-miterlimit:4;stroke-dasharray:none;stroke-dashoffset:0;stroke-opacity:1;marker:none;enable-background:accumulate" d="m97.348 926.253 6.937 8.477-10.902 82.89 13.876 12.246 14.866-12.716-7.929-81.949 8.92-8.477z" transform="translate(0 -804.33)"/>
</svg>
